<?xml version="1.0" encoding="UTF-8" standalone="no"?>
<!DOCTYPE svg PUBLIC "-//W3C//DTD SVG 1.1//EN" "http://www.w3.org/Graphics/SVG/1.1/DTD/svg11.dtd">
<svg width="100%" height="100%" viewBox="0 0 141 141" version="1.1" xmlns="http://www.w3.org/2000/svg" xmlns:xlink="http://www.w3.org/1999/xlink" xml:space="preserve" xmlns:serif="http://www.serif.com/" style="fill-rule:evenodd;clip-rule:evenodd;stroke-linecap:round;stroke-linejoin:round;stroke-miterlimit:10;">
    <g transform="matrix(1,0,0,1,-1352.86,-670.349)">
        <g transform="matrix(0.433458,0,0,0.433458,823.114,331.315)">
            <path d="M1545.83,813.191C1545.83,796.065 1531.93,782.161 1514.8,782.161L1253.18,782.161C1236.06,782.161 1222.15,796.065 1222.15,813.191L1222.15,1074.81C1222.15,1091.94 1236.06,1105.84 1253.18,1105.84L1514.8,1105.84C1531.93,1105.84 1545.83,1091.94 1545.83,1074.81L1545.83,813.191Z" style="fill:rgb(15,104,175);"/>
        </g>
        <g transform="matrix(0.879245,0,0,0.879245,173.117,85.6805)">
            <g transform="matrix(1.04726,0,0,1.04177,1354.67,678.965)">
                <g>
                    <circle cx="89" cy="101" r="8" style="fill:none;stroke:white;stroke-width:8px;"/>
                </g>
            </g>
            <g transform="matrix(1.04726,0,0,1.04177,1354.67,678.965)">
                <g>
                    <circle cx="49" cy="101" r="8" style="fill:none;stroke:white;stroke-width:8px;"/>
                </g>
            </g>
            <g transform="matrix(1.04726,0,0,1.04177,1354.67,675.84)">
                <g>
                    <path d="M28.113,40.154L111.193,40.154C114,40.154 115.934,42.97 114.926,45.59L99.877,79.872C98.688,82.961 95.72,85 92.41,85L45.608,85C41.772,85 38.476,82.278 37.752,78.511L28.113,40.154Z" style="fill:none;fill-rule:nonzero;stroke:white;stroke-width:8px;"/>
                </g>
            </g>
            <g transform="matrix(1.04726,0,0,1.04177,1353.13,678.208)">
                <g>
                    <path d="M29.774,38.549L26.429,25.431C25.681,21.692 22.398,19 18.585,19L4.736,19" style="fill:none;fill-rule:nonzero;stroke:white;stroke-width:8px;"/>
                </g>
            </g>
        </g>
    </g>
</svg>
