<?xml version="1.0" encoding="UTF-8" standalone="no"?>
<!DOCTYPE svg PUBLIC "-//W3C//DTD SVG 1.1//EN" "http://www.w3.org/Graphics/SVG/1.1/DTD/svg11.dtd">
<svg width="100%" height="100%" viewBox="0 0 96 93" version="1.1" xmlns="http://www.w3.org/2000/svg" xmlns:xlink="http://www.w3.org/1999/xlink" xml:space="preserve" xmlns:serif="http://www.serif.com/" style="fill-rule:evenodd;clip-rule:evenodd;stroke-linejoin:round;stroke-miterlimit:2;">
    <g transform="matrix(1,0,0,1,-1571.12,-325.972)">
        <g transform="matrix(149.168,0,0,116.667,1565.15,416.855)">
            <path d="M0.361,-0.471L0.148,-0.762C0.14,-0.774 0.129,-0.779 0.116,-0.779C0.106,-0.779 0.094,-0.775 0.084,-0.768C0.071,-0.759 0.062,-0.744 0.062,-0.729C0.062,-0.722 0.065,-0.714 0.07,-0.706L0.298,-0.402L0.048,-0.06C0.043,-0.052 0.04,-0.044 0.04,-0.036C0.04,-0.021 0.049,-0.007 0.062,0.002C0.072,0.009 0.084,0.013 0.095,0.013C0.107,0.013 0.12,0.008 0.128,-0.004L0.36,-0.333L0.591,-0.004C0.601,0.008 0.613,0.013 0.626,0.013C0.637,0.013 0.648,0.009 0.658,0.003C0.671,-0.006 0.681,-0.021 0.681,-0.037C0.681,-0.045 0.678,-0.053 0.672,-0.06L0.421,-0.403L0.643,-0.706C0.649,-0.713 0.651,-0.721 0.651,-0.728C0.651,-0.745 0.641,-0.76 0.628,-0.769C0.618,-0.775 0.607,-0.779 0.596,-0.779C0.583,-0.779 0.571,-0.774 0.562,-0.761L0.361,-0.471Z" style="fill:rgb(198,198,198);fill-rule:nonzero;"/>
        </g>
    </g>
</svg>
