<?xml version="1.0" encoding="UTF-8" standalone="no"?>
<!DOCTYPE svg PUBLIC "-//W3C//DTD SVG 1.1//EN" "http://www.w3.org/Graphics/SVG/1.1/DTD/svg11.dtd">
<svg width="100%" height="100%" viewBox="0 0 141 141" version="1.1" xmlns="http://www.w3.org/2000/svg" xmlns:xlink="http://www.w3.org/1999/xlink" xml:space="preserve" xmlns:serif="http://www.serif.com/" style="fill-rule:evenodd;clip-rule:evenodd;stroke-linejoin:round;stroke-miterlimit:2;">
    <g transform="matrix(1,0,0,1,-1008.53,-670.349)">
        <g transform="matrix(0.433458,0,0,0.433458,478.774,331.315)">
            <path d="M1545.83,813.191C1545.83,796.065 1531.93,782.161 1514.8,782.161L1253.18,782.161C1236.06,782.161 1222.15,796.065 1222.15,813.191L1222.15,1074.81C1222.15,1091.94 1236.06,1105.84 1253.18,1105.84L1514.8,1105.84C1531.93,1105.84 1545.83,1091.94 1545.83,1074.81L1545.83,813.191Z" style="fill:rgb(15,104,175);"/>
        </g>
        <g transform="matrix(141.607,0,0,141.607,1063.74,787.303)">
            <path d="M0.161,0L0.161,-0.484L0.073,-0.484L0.073,0L0.161,0ZM0.117,-0.675C0.084,-0.675 0.062,-0.65 0.062,-0.62C0.062,-0.59 0.083,-0.566 0.115,-0.566C0.15,-0.566 0.171,-0.59 0.171,-0.62C0.171,-0.651 0.149,-0.675 0.117,-0.675Z" style="fill:white;fill-rule:nonzero;"/>
        </g>
    </g>
</svg>
