<?xml version="1.0" encoding="UTF-8" standalone="no"?>
<!DOCTYPE svg PUBLIC "-//W3C//DTD SVG 1.1//EN" "http://www.w3.org/Graphics/SVG/1.1/DTD/svg11.dtd">
<svg width="100%" height="100%" viewBox="0 0 25 24" version="1.1" xmlns="http://www.w3.org/2000/svg" xmlns:xlink="http://www.w3.org/1999/xlink" xml:space="preserve" xmlns:serif="http://www.serif.com/" style="fill-rule:evenodd;clip-rule:evenodd;stroke-linejoin:round;stroke-miterlimit:2;">
    <path d="M16.861,18.286C13.604,20.839 8.872,20.616 5.872,17.616C2.631,14.375 2.631,9.113 5.872,5.872C9.113,2.631 14.375,2.631 17.616,5.872C20.475,8.731 20.812,13.164 18.627,16.393L24.48,22.119C23.877,22.736 23.274,23.352 22.671,23.969L16.861,18.286ZM16.038,7.45C18.408,9.82 18.408,13.668 16.038,16.038C13.668,18.408 9.82,18.408 7.45,16.038C5.081,13.668 5.081,9.82 7.45,7.45C9.82,5.081 13.668,5.081 16.038,7.45Z" style="fill:white;"/>
</svg>
